<?xml version="1.0" encoding="utf-8"?>
<!-- Generator: Adobe Illustrator 15.0.2, SVG Export Plug-In . SVG Version: 6.00 Build 0)  -->
<!DOCTYPE svg PUBLIC "-//W3C//DTD SVG 1.1//EN" "http://www.w3.org/Graphics/SVG/1.1/DTD/svg11.dtd">
<svg version="1.1" id="Layer_1" xmlns="http://www.w3.org/2000/svg" xmlns:xlink="http://www.w3.org/1999/xlink" x="0px" y="0px"
	 width="431px" height="166px" viewBox="0 0 431 166" enable-background="new 0 0 431 166" xml:space="preserve">
<g>
	<path fill="#8CC63F" d="M32.82,24.803l-6.209-6.209c22.288-22.288,58.541-22.288,80.828-0.001l-6.21,6.21
		C82.376,5.951,51.673,5.95,32.82,24.803z"/>
	<path fill="#8CC63F" d="M45.258,37.242l-6.21-6.21c15.436-15.437,40.518-15.437,55.953-0.001l-6.208,6.209
		C76.791,25.237,57.261,25.239,45.258,37.242z"/>
	<path fill="#8CC63F" d="M57.695,49.678l-6.213-6.213c8.586-8.586,22.516-8.566,31.084,0.002l-6.209,6.209
		C71.207,44.525,62.847,44.526,57.695,49.678z"/>
</g>
<path d="M18.638,105.155h34.629v8.904H2.408V42.668h16.23V105.155z"/>
<path d="M113.166,114.06h-16.23V42.668h48.579v8.899h-32.349v20.833h26.962v8.859h-26.962V114.06z"/>
<path d="M155.154,42.668h48.578v8.899h-32.345v20.833h26.962v8.859h-26.962v23.895h32.794v8.904h-49.027V42.668z"/>
<path d="M231.292,105.155h34.627v8.904h-50.861V42.668h16.234V105.155z"/>
<path d="M291.794,42.668v71.391h-16.23V42.668H291.794z"/>
<path d="M350.464,93.824V42.818h11.668v71.39h-18.998L317.07,59.983v54.077h-11.482V42.668h20.08L350.464,93.824z"/>
<path d="M376.185,42.668h48.58v8.899h-32.346v20.833h26.963v8.859h-26.963v23.895h32.793v8.904h-49.027V42.668z"/>
<path d="M62.993,56.735c-2.556,7.134-6.409,23.291,3.729,26.729c9.366,3.176,19.018-3.356,20.96-12.605
	c0.144-0.685-0.288-1.4-0.878-1.721C71.451,60.797,59.834,85.003,59.48,96.759c-0.487,16.181,20.731,12.562,26.039,1.86
	c0.434-0.875,0.277-1.889-0.641-2.391c-8.023-4.38-17.612,1.268-20.606,9.156c-3.029,7.98,1.195,18.299,10.411,19.016
	c3.455,0.268,8.043-4.729,2.804-5.136c-10.657-0.828-6.118-22.94,1.359-18.857c-0.213-0.797-0.427-1.594-0.641-2.391
	c-4.114,8.294-11.13,4.423-10.895-3.391c0.149-4.968,2.221-9.917,4.566-14.205c1.389-2.539,5.332-9.04,8.894-7.104
	c-0.292-0.574-0.585-1.147-0.878-1.721c-0.998,4.752-7.39,11.541-10.757,4.45c-2.587-5.445-0.755-13.333,1.171-18.708
	C71.736,53.347,64.023,53.86,62.993,56.735L62.993,56.735z"/>
<text transform="matrix(1 0 0 1 0 155.8174)" font-family="'MyriadPro-Regular'" font-size="30.0545">Everyone should have a lucky star</text>
</svg>
